<svg xmlns="http://www.w3.org/2000/svg" xmlns:xlink="http://www.w3.org/1999/xlink" version="1.1" x="0px" y="0px" viewBox="0 0 64 80" style="enable-background:new 0 0 64 64;" xml:space="preserve"><g><rect x="9" y="51" width="2" height="2"/><rect x="5" y="51" width="2" height="2"/><rect x="13" y="51" width="2" height="2"/><path d="M58,15h-1V1H7v12h2v-2h46v6h3c1.654,0,3,1.346,3,3v29H21.236l-4-2H3V20c0-1.654,1.346-3,3-3h1v28h50V19h-2v24H9V15H6   c-2.757,0-5,2.243-5,5v32c0,2.757,2.243,5,5,5h13v4h-4v2h34v-2h-4v-4h13c2.757,0,5-2.243,5-5V20C63,17.243,60.757,15,58,15z M9,9V3   h46v6H9z M43,61H21v-4h22V61z M58,55H6c-1.654,0-3-1.346-3-3v-3h13.764l4,2H61v1C61,53.654,59.654,55,58,55z"/><rect x="11" y="5" width="2" height="2"/><rect x="15" y="5" width="2" height="2"/><rect x="19" y="5" width="2" height="2"/><path d="M47,41V28.057c1.206-0.883,2-2.298,2-3.903v-0.529c0-0.522-0.084-1.039-0.249-1.533L45.721,13H18.279l-3.03,9.091   C15.084,22.585,15,23.102,15,23.624v0.529c0,1.606,0.794,3.021,2,3.903V41H47z M34,39h-4v-6h4V39z M45,39h-9v-8h-8v8h-9V28.914   C19.276,28.963,19.557,29,19.847,29c1.637,0,3.109-0.838,3.991-2.128C24.711,28.155,26.181,29,27.847,29   c1.735,0,3.296-0.932,4.153-2.356C32.858,28.069,34.418,29,36.153,29c1.665,0,3.136-0.845,4.009-2.128   C41.045,28.162,42.516,29,44.153,29c0.29,0,0.571-0.037,0.847-0.086V39z M44.279,15l2.575,7.724c0.097,0.29,0.146,0.593,0.146,0.9   v0.529C47,25.723,45.723,27,44.153,27c-1.353,0-2.525-0.962-2.791-2.289L41,23.048V23h-0.01l-1.742-8H44.279z M39,23.108v1.045   C39,25.723,37.723,27,36.153,27c-1.353,0-2.525-0.962-2.791-2.289L33,22.901V15h4.198L39,23.108z M31,15v7.901l-0.362,1.811   C30.372,26.038,29.199,27,27.847,27C26.277,27,25,25.723,25,24.153v-0.89L26.802,15H31z M17,23.624c0-0.307,0.049-0.61,0.146-0.9   L19.721,15h5.032l-1.733,7.804l-0.382,1.908C22.372,26.038,21.199,27,19.847,27C18.277,27,17,25.723,17,24.153V23.624z"/></g><text x="0" y="79" fill="#000000" font-size="5px" font-weight="bold" font-family="'Helvetica Neue', Helvetica, Arial-Unicode, Arial, Sans-serif">Created by Eucalyp</text><text x="0" y="84" fill="#000000" font-size="5px" font-weight="bold" font-family="'Helvetica Neue', Helvetica, Arial-Unicode, Arial, Sans-serif">from the Noun Project</text></svg>